<?xml version="1.0" encoding="UTF-8" standalone="no"?>
<!DOCTYPE svg PUBLIC "-//W3C//DTD SVG 1.1//EN" "http://www.w3.org/Graphics/SVG/1.1/DTD/svg11.dtd">
<svg width="100%" height="100%" viewBox="0 0 136 54" version="1.1" xmlns="http://www.w3.org/2000/svg" xmlns:xlink="http://www.w3.org/1999/xlink" xml:space="preserve" style="fill-rule:evenodd;clip-rule:evenodd;stroke-linejoin:round;stroke-miterlimit:1.41421;">
    <g transform="matrix(1,0,0,1,-110.996,-223)">
        <g transform="matrix(1,0,0,1,2.6057,-17.632)">
            <g transform="matrix(1,0,0,1,-2.6057,17.632)">
                <path d="M110.996,223L183.004,223L183.004,226.998L183.001,226.998L183.001,233L179.004,233L179.004,226.998L114.994,226.998L114.994,273L178.996,273L178.996,244.998L175.004,244.998L175.004,241L186.004,241L186.004,244.998L182.994,244.998L182.994,273L182.996,273L182.996,276.998L114.994,276.998L114.994,277L110.996,277L110.996,223Z"/>
            </g>
            <g transform="matrix(0.944668,0,0,0.991652,5.92641,171.515)">
                <path d="M170.908,112.052L170.908,92.033C170.888,92.053 170.664,92.113 170.236,92.213C169.807,92.312 169.324,92.412 168.787,92.511C168.249,92.611 167.771,92.701 167.352,92.78C166.934,92.86 166.715,92.9 166.695,92.9L166.695,90.48C167.034,90.4 167.427,90.29 167.875,90.151C168.323,90.012 168.782,89.842 169.25,89.643C169.718,89.444 170.166,89.195 170.594,88.896C171.023,88.597 171.386,88.249 171.685,87.85L174.105,87.85L174.105,112.052L170.908,112.052Z" style="fill-rule:nonzero;"/>
            </g>
            <g transform="matrix(0.98465,0,0,0.975932,20.7398,172.992)">
                <path d="M173.822,112.32C172.197,112.32 170.9,112.003 169.929,111.369C168.958,110.735 168.265,109.829 167.849,108.65C167.433,107.471 167.225,106.089 167.225,104.505L167.225,95.382C167.225,93.797 167.438,92.435 167.864,91.296C168.29,90.157 168.983,89.286 169.944,88.681C170.905,88.077 172.197,87.775 173.822,87.775C175.446,87.775 176.734,88.082 177.685,88.696C178.636,89.31 179.324,90.182 179.75,91.311C180.176,92.44 180.389,93.797 180.389,95.382L180.389,104.534C180.389,106.099 180.176,107.466 179.75,108.635C179.324,109.804 178.636,110.71 177.685,111.354C176.734,111.998 175.446,112.32 173.822,112.32ZM173.822,109.675C174.713,109.675 175.387,109.492 175.842,109.125C176.298,108.759 176.605,108.244 176.764,107.58C176.922,106.917 177.001,106.139 177.001,105.248L177.001,94.699C177.001,93.807 176.922,93.04 176.764,92.396C176.605,91.752 176.298,91.257 175.842,90.91C175.387,90.563 174.713,90.39 173.822,90.39C172.93,90.39 172.252,90.563 171.786,90.91C171.321,91.257 171.009,91.752 170.85,92.396C170.692,93.04 170.613,93.807 170.613,94.699L170.613,105.248C170.613,106.139 170.692,106.917 170.85,107.58C171.009,108.244 171.321,108.759 171.786,109.125C172.252,109.492 172.93,109.675 173.822,109.675Z" style="fill-rule:nonzero;"/>
            </g>
            <g transform="matrix(1.00541,0,0,0.976801,32.0126,172.892)">
                <path d="M173.959,112.322C172.199,112.322 170.849,111.972 169.909,111.272C168.969,110.572 168.329,109.587 167.989,108.317C167.649,107.047 167.479,105.562 167.479,103.862L167.479,87.752L170.719,87.752L170.719,104.012C170.719,105.052 170.789,106.002 170.929,106.862C171.069,107.722 171.374,108.402 171.844,108.902C172.314,109.402 173.019,109.652 173.959,109.652C174.919,109.652 175.629,109.402 176.089,108.902C176.549,108.402 176.849,107.722 176.989,106.862C177.129,106.002 177.199,105.052 177.199,104.012L177.199,87.752L180.409,87.752L180.409,103.862C180.409,105.562 180.239,107.047 179.899,108.317C179.559,109.587 178.924,110.572 177.994,111.272C177.064,111.972 175.719,112.322 173.959,112.322Z" style="fill-rule:nonzero;"/>
            </g>
            <g transform="matrix(1.02686,0,0,0.968523,43.6679,173.845)">
                <path d="M173.779,112.322C172.059,112.322 170.724,111.962 169.774,111.242C168.824,110.522 168.164,109.552 167.794,108.332C167.424,107.112 167.239,105.752 167.239,104.252L167.239,95.672C167.239,94.032 167.424,92.602 167.794,91.382C168.164,90.162 168.824,89.217 169.774,88.547C170.724,87.877 172.059,87.542 173.779,87.542C175.299,87.542 176.504,87.822 177.394,88.382C178.284,88.942 178.924,89.742 179.314,90.782C179.704,91.822 179.899,93.072 179.899,94.532L179.899,96.452L176.689,96.452L176.689,94.742C176.689,93.842 176.644,93.047 176.554,92.357C176.464,91.667 176.219,91.132 175.819,90.752C175.419,90.372 174.749,90.182 173.809,90.182C172.849,90.182 172.149,90.387 171.709,90.797C171.269,91.207 170.984,91.787 170.854,92.537C170.724,93.287 170.659,94.162 170.659,95.162L170.659,104.792C170.659,106.012 170.759,106.977 170.959,107.687C171.159,108.397 171.489,108.902 171.949,109.202C172.409,109.502 173.029,109.652 173.809,109.652C174.729,109.652 175.389,109.447 175.789,109.037C176.189,108.627 176.439,108.062 176.539,107.342C176.639,106.622 176.689,105.782 176.689,104.822L176.689,103.022L179.899,103.022L179.899,104.822C179.899,106.302 179.719,107.607 179.359,108.737C178.999,109.867 178.379,110.747 177.499,111.377C176.619,112.007 175.379,112.322 173.779,112.322Z" style="fill-rule:nonzero;"/>
            </g>
            <g transform="matrix(0.998464,0,0,0.987654,62.9669,171.963)">
                <path d="M167.689,112.052L167.689,87.752L171.079,87.752L171.079,98.252L177.319,98.252L177.319,87.752L180.709,87.752L180.709,112.052L177.319,112.052L177.319,100.682L171.079,100.682L171.079,112.052L167.689,112.052Z" style="fill-rule:nonzero;"/>
            </g>
        </g>
    </g>
</svg>
