<?xml version="1.0" encoding="UTF-8" standalone="no"?><!DOCTYPE svg PUBLIC "-//W3C//DTD SVG 1.1//EN" "http://www.w3.org/Graphics/SVG/1.1/DTD/svg11.dtd"><svg width="100%" height="100%" viewBox="0 0 136 54" version="1.1" xmlns="http://www.w3.org/2000/svg" xmlns:xlink="http://www.w3.org/1999/xlink" xml:space="preserve" style="fill-rule:evenodd;clip-rule:evenodd;stroke-linejoin:round;stroke-miterlimit:1.41421;"><g><path d="M0,0l72.008,0l0,3.998l-0.003,0l0,6.002l-3.997,0l0,-6.002l-64.01,0l0,46.002l64.002,0l0,-28.002l-3.992,0l0,-3.998l11,0l0,3.998l-3.01,0l0,28.002l0.002,0l0,3.998l-68.002,0l0,0.002l-3.998,0l0,-54Z" style="fill:#fff;"/><path d="M58.987,42l0,-19.852c-0.018,0.02 -0.23,0.079 -0.634,0.178c-0.406,0.098 -0.862,0.198 -1.369,0.296c-0.508,0.099 -0.96,0.188 -1.356,0.266c-0.395,0.08 -0.602,0.119 -0.62,0.119l0,-2.399c0.32,-0.08 0.691,-0.189 1.114,-0.327c0.423,-0.137 0.857,-0.306 1.299,-0.503c0.442,-0.198 0.865,-0.445 1.27,-0.741c0.405,-0.297 0.748,-0.642 1.03,-1.037l2.287,0l0,24l-3.021,0Z" style="fill:#fff;fill-rule:nonzero;"/><path d="M83.503,41.977c-1.6,0 -2.877,-0.31 -3.833,-0.928c-0.956,-0.619 -1.638,-1.503 -2.048,-2.654c-0.41,-1.151 -0.614,-2.499 -0.614,-4.045l0,-8.904c0,-1.547 0.209,-2.876 0.629,-3.987c0.419,-1.112 1.102,-1.962 2.048,-2.552c0.946,-0.59 2.218,-0.885 3.818,-0.885c1.599,0 2.868,0.3 3.804,0.899c0.936,0.599 1.614,1.45 2.033,2.552c0.42,1.102 0.63,2.426 0.63,3.973l0,8.932c0,1.527 -0.21,2.862 -0.63,4.002c-0.419,1.141 -1.097,2.025 -2.033,2.654c-0.936,0.628 -2.205,0.943 -3.804,0.943Zm0,-2.582c0.878,0 1.541,-0.178 1.989,-0.536c0.449,-0.358 0.752,-0.86 0.908,-1.508c0.156,-0.647 0.234,-1.407 0.234,-2.276l0,-10.295c0,-0.871 -0.078,-1.619 -0.234,-2.248c-0.156,-0.628 -0.459,-1.111 -0.908,-1.45c-0.448,-0.339 -1.111,-0.508 -1.989,-0.508c-0.878,0 -1.546,0.169 -2.004,0.508c-0.458,0.339 -0.765,0.822 -0.922,1.45c-0.156,0.629 -0.233,1.377 -0.233,2.248l0,10.295c0,0.869 0.077,1.629 0.233,2.276c0.157,0.648 0.464,1.15 0.922,1.508c0.458,0.358 1.126,0.536 2.004,0.536Z" style="fill:#fff;fill-rule:nonzero;"/><path d="M98.522,41.976c-1.769,0 -3.126,-0.342 -4.071,-1.025c-0.946,-0.684 -1.589,-1.646 -1.931,-2.887c-0.342,-1.24 -0.513,-2.691 -0.513,-4.351l0,-15.737l3.258,0l0,15.883c0,1.016 0.07,1.944 0.211,2.784c0.141,0.84 0.447,1.504 0.92,1.993c0.473,0.488 1.181,0.732 2.126,0.732c0.966,0 1.679,-0.244 2.142,-0.732c0.462,-0.489 0.764,-1.153 0.905,-1.993c0.141,-0.84 0.211,-1.768 0.211,-2.784l0,-15.883l3.227,0l0,15.737c0,1.66 -0.171,3.111 -0.512,4.351c-0.342,1.241 -0.981,2.203 -1.916,2.887c-0.935,0.683 -2.287,1.025 -4.057,1.025Z" style="fill:#fff;fill-rule:nonzero;"/><path d="M113.724,41.999c-1.766,0 -3.137,-0.348 -4.112,-1.046c-0.976,-0.697 -1.654,-1.636 -2.033,-2.818c-0.38,-1.182 -0.57,-2.499 -0.57,-3.952l0,-8.309c0,-1.589 0.19,-2.974 0.57,-4.155c0.379,-1.182 1.057,-2.097 2.033,-2.746c0.975,-0.649 2.346,-0.974 4.112,-0.974c1.561,0 2.798,0.272 3.712,0.814c0.914,0.542 1.571,1.317 1.972,2.324c0.4,1.008 0.601,2.218 0.601,3.632l0,1.86l-3.297,0l0,-1.656c0,-0.872 -0.046,-1.642 -0.138,-2.31c-0.093,-0.668 -0.344,-1.187 -0.755,-1.555c-0.411,-0.368 -1.099,-0.552 -2.064,-0.552c-0.986,0 -1.704,0.199 -2.156,0.596c-0.452,0.397 -0.745,0.959 -0.878,1.685c-0.134,0.727 -0.2,1.574 -0.2,2.543l0,9.326c0,1.182 0.102,2.117 0.308,2.804c0.205,0.688 0.544,1.177 1.016,1.468c0.473,0.29 1.109,0.435 1.91,0.435c0.945,0 1.623,-0.198 2.033,-0.595c0.411,-0.397 0.668,-0.944 0.77,-1.642c0.103,-0.697 0.154,-1.511 0.154,-2.44l0,-1.744l3.297,0l0,1.744c0,1.433 -0.185,2.697 -0.555,3.791c-0.369,1.095 -1.006,1.947 -1.91,2.557c-0.903,0.61 -2.177,0.915 -3.82,0.915Z" style="fill:#fff;fill-rule:nonzero;"/><path d="M122.008,42l0,-24l3.385,0l0,10.37l6.23,0l0,-10.37l3.385,0l0,24l-3.385,0l0,-11.23l-6.23,0l0,11.23l-3.385,0Z" style="fill:#fff;fill-rule:nonzero;"/></g></svg>